# xmcd CD database file
#
# Track frame offsets:
#	150
#	34605
#	54010
#	92392
#	134505
#	167197
#	198787
#	223135
#	251134
#	286875
#
# Disc length: 4075 seconds
#
# Revision: 0
# Processed by: cddbd v1.5.2PL0 Copyright (c) Steve Scherf et al.
# Submitted via: CDex 1.77
#
DISCID=880fe90a
DTITLE=Eddie Henderson - Dark Shadows
DYEAR=1995
DGENRE=Jazz
TTITLE0=El Gaucho
TTITLE1=19th Street
TTITLE2=Goodbye
TTITLE3=Cerulean Blue
TTITLE4=Dark Shadows
TTITLE5=Punjab
TTITLE6=A Certain Vibe
TTITLE7=Lament for Booker
TTITLE8=Dawning Dance
TTITLE9=The Water is Wide
EXTD=YEAR: 1995
EXTT0=
EXTT1=
EXTT2=
EXTT3=
EXTT4=
EXTT5=
EXTT6=
EXTT7=
EXTT8=
EXTT9=
PLAYORDER=
